# xmcd
#
# Track frame offsets: 
#        150
#        20298
#        42700
#        61190
#        84402
#        104174
#        121693
#        135693
#        156659
#        170843
#        193012
#        213428
#        228415
#        244309
#
# Disc length: 3590 seconds
#
# Revision: 0
# Processed by: cddbd v1.5.2PL0 Copyright (c) Steve Scherf et al.
# Submitted via: ExactAudioCopyFreeDBPlugin 1.0
#
DISCID=cc0e040e
DTITLE=Blues Pills - Debutalbum
DYEAR=2014
DGENRE=R&B
TTITLE0=High Class Woman
TTITLE1=Ain´t No Change
TTITLE2=Jupiter
TTITLE3=Black Smoke
TTITLE4=River
TTITLE5=No Hope Left For Me
TTITLE6=Devil Man
TTITLE7=Astralplane
TTITLE8=Gypsy
TTITLE9=Little Sun
TTITLE10=Devil Man (EP Version)
TTITLE11=The River
TTITLE12=Time Is Now
TTITLE13=Dig In
EXTD=
EXTT0=
EXTT1=
EXTT2=
EXTT3=
EXTT4=
EXTT5=
EXTT6=
EXTT7=
EXTT8=
EXTT9=
EXTT10=
EXTT11=
EXTT12=
EXTT13=
PLAYORDER=
